<svg id="lima" xmlns="http://www.w3.org/2000/svg" xmlns:xlink="http://www.w3.org/1999/xlink" viewBox="0 0 2000 1024" shape-rendering="geometricPrecision" text-rendering="geometricPrecision"><g id="lima-capa_1"><g id="lima-g1" transform="matrix(1 0 0 1 83.69995116999985 0)"><path id="lima-path1" d="M1014.100000,360.500000C1016.600000,351.900000,1025.800000,345.300000,1037,345.300000C1048.200000,345.300000,1057.800000,351.900000,1059.900000,360.500000C1063.500000,359,1067.500000,358,1071.600000,358C1083.300000,358,1092.900000,365.100000,1095,374.300000C1104.100000,376.800000,1110.800000,383.400000,1110.800000,391.600000L1110.800000,391.600000C1110.800000,401.800000,1101.100000,409.400000,1088.900000,409.400000L985.100000,409.400000C972.900000,409.400000,963.200000,401.300000,963.200000,391.600000L963.200000,391.600000C963.200000,383.500000,969.800000,376.400000,979,374.300000C981,365.200000,990.700000,358,1002.400000,358C1006.500000,358,1010.500000,359,1014.100000,360.500000Z" clip-rule="evenodd" fill="rgb(255,255,255)" fill-rule="evenodd" stroke="rgb(96,96,96)" stroke-width="0.050439" stroke-miterlimit="5.043900"/><path id="lima-path2" d="M1037,344.800000L1037,344.800000C1048.200000,344.800000,1057.300000,351.400000,1059.900000,360C1063.500000,358.500000,1067.500000,357.500000,1071.600000,357.500000C1083.300000,357.500000,1092.900000,364.600000,1095,373.800000C1104.100000,376.300000,1110.800000,382.900000,1110.800000,391.100000L1110.800000,391.100000C1110.800000,401.300000,1101.100000,408.900000,1088.900000,408.900000L1037,408.900000" clip-rule="evenodd" fill="rgb(233,252,255)" fill-rule="evenodd" stroke="rgb(96,96,96)" stroke-width="0.050439" stroke-miterlimit="5.043900"/></g><g id="lima-g2" transform="matrix(1 0 0 1 -478.44995116999996 0)"><path id="lima-path3" d="M543,147.100000C544.500000,140.500000,551.600000,135.900000,559.800000,135.900000C568,135.900000,575,141,576.600000,147.100000C579.100000,145.600000,582.200000,145.100000,585.200000,145.100000C593.800000,145.100000,601,150.200000,602.500000,157.300000C609.100000,158.800000,614.200000,163.900000,614.200000,170L614.200000,170C614.200000,177.100000,607.100000,183.200000,597.900000,183.200000L521.700000,183.200000C513.100000,183.200000,505.400000,177.100000,505.400000,170L505.400000,170C505.400000,163.900000,510.500000,158.800000,517.100000,157.300000C518.600000,150.200000,525.700000,145.100000,534.400000,145.100000C537.400000,145.500000,540.400000,146,543,147.100000Z" clip-rule="evenodd" fill="rgb(255,255,255)" fill-rule="evenodd" stroke="rgb(96,96,96)" stroke-width="0.050439" stroke-miterlimit="5.043900"/><path id="lima-path4" d="M559.700000,135.900000C568.300000,135.900000,574.900000,141,576.500000,147.100000C579,145.600000,582.100000,145.100000,585.100000,145.100000C593.700000,145.100000,600.900000,150.200000,602.400000,157.300000C609,158.800000,614.100000,163.900000,614.100000,170L614.100000,170C614.100000,177.100000,607,183.200000,597.800000,183.200000L559.700000,183.200000" transform="matrix(1 0 0 1 2.59999999999991 0)" clip-rule="evenodd" fill="rgb(233,252,255)" fill-rule="evenodd" stroke="rgb(96,96,96)" stroke-width="0.050439" stroke-miterlimit="5.043900"/></g><g id="lima-g3" transform="matrix(1 0 0 1 -170.39999694999992 0)"><path id="lima-path5" d="M296.500000,282.800000C299.500000,271.600000,311.200000,263,326,263C340.200000,263,352.400000,271.600000,355.500000,282.800000C360.100000,280.800000,365.200000,279.200000,370.700000,279.200000C385.400000,279.200000,398.100000,288.300000,400.200000,300C411.900000,303,420,311.700000,420,321.900000L420,321.900000C420,334.600000,407.300000,344.800000,392.600000,344.800000L260.400000,344.800000C245.200000,344.800000,233,334.600000,233,321.900000L233,321.900000C233,311.700000,241.600000,302.600000,252.800000,300C255.300000,288.300000,267.500000,279.200000,282.300000,279.200000C286.800000,279.700000,291.900000,280.700000,296.500000,282.800000Z" clip-rule="evenodd" fill="rgb(255,255,255)" fill-rule="evenodd" stroke="rgb(96,96,96)" stroke-width="0.050439" stroke-miterlimit="5.043900"/><path id="lima-path6" d="M325.900000,262.900000C340.100000,262.900000,352.300000,271.500000,355.400000,282.700000C360,280.700000,365.100000,279.100000,370.600000,279.100000C385.300000,279.100000,398,288.200000,400.600000,299.900000C412.300000,302.900000,420.400000,311.600000,420.400000,321.800000L420.400000,321.800000C420.400000,334.500000,407.700000,344.700000,393,344.700000L326.400000,344.700000" clip-rule="evenodd" fill="rgb(233,252,255)" fill-rule="evenodd" stroke="rgb(96,96,96)" stroke-width="0.050439" stroke-miterlimit="5.043900"/></g><g id="lima-g4"><path id="lima-path7" d="M1020.200000,170.900000C1021.700000,164.300000,1028.800000,159.700000,1037,159.700000C1045.600000,159.700000,1052.200000,164.800000,1053.800000,170.900000C1056.300000,169.400000,1059.400000,168.900000,1062.400000,168.900000C1071,168.900000,1078.200000,174,1079.700000,181.100000C1086.300000,182.600000,1091.400000,187.700000,1091.400000,193.800000L1091.400000,193.800000C1091.400000,200.900000,1084.300000,207,1075.100000,207L998.900000,207C990.300000,207,982.600000,200.900000,982.600000,193.800000L982.600000,193.800000C982.600000,187.700000,987.700000,182.600000,994.300000,181.100000C995.800000,174,1002.900000,168.900000,1011.600000,168.900000C1014.600000,169.400000,1017.600000,169.900000,1020.200000,170.900000Z" clip-rule="evenodd" fill="rgb(255,255,255)" fill-rule="evenodd" stroke="rgb(96,96,96)" stroke-width="0.050439" stroke-miterlimit="5.043900"/><path id="lima-path8" d="M1037,159.800000C1045.600000,159.800000,1052.200000,164.900000,1053.800000,171C1056.300000,169.500000,1059.400000,169,1062.400000,169C1071,169,1078.200000,174.100000,1079.700000,181.200000C1086.300000,182.700000,1091.400000,187.800000,1091.400000,193.900000L1091.400000,193.900000C1091.400000,201,1084.300000,207.100000,1075.100000,207.100000L1037,207.100000" clip-rule="evenodd" fill="rgb(233,252,255)" fill-rule="evenodd" stroke="rgb(96,96,96)" stroke-width="0.050439" stroke-miterlimit="5.043900"/></g></g><g id="lima-capa_3"><g id="lima-g5"><path id="lima-path9" d="M1267.700000,833.700000C1222,766.600000,1145.700000,727,1064.900000,727L1064.900000,727C983.600000,727,907.900000,767.100000,862.100000,833.700000L1267.700000,833.700000Z" fill="rgb(208,214,84)" stroke="none" stroke-width="1"/><g id="lima-g6"><polygon id="lima-polygon1" points="1235.200000,792 1232.100000,792 1232.100000,810.800000 1235.200000,810.800000" fill="rgb(119,106,104)" stroke="none" stroke-width="1"/><polygon id="lima-polygon2" points="1238.200000,792 1235.200000,792 1235.200000,810.800000 1238.200000,810.800000" fill="rgb(127,118,117)" stroke="none" stroke-width="1"/><polygon id="lima-polygon3" points="1234.700000,728.500000 1219.900000,796.600000 1235.200000,801.700000 1249.400000,796.600000" fill="rgb(116,170,53)" stroke="none" stroke-width="1"/><polygon id="lima-polygon4" points="1234.700000,728.500000 1219.900000,796.600000 1235.200000,801.700000" fill="rgb(95,147,44)" stroke="none" stroke-width="1"/></g><g id="lima-g7"><polygon id="lima-polygon5" points="1198.100000,806.700000 1194.500000,806.700000 1194.500000,829.600000 1198.100000,829.600000" fill="rgb(119,106,104)" stroke="none" stroke-width="1"/><polygon id="lima-polygon6" points="1201.600000,806.700000 1198.100000,806.700000 1198.100000,829.600000 1201.600000,829.600000" fill="rgb(127,118,117)" stroke="none" stroke-width="1"/><polygon id="lima-polygon7" points="1197,730.500000 1179.800000,812.300000 1198.100000,818.400000 1214.800000,812.300000" fill="rgb(116,170,53)" stroke="none" stroke-width="1"/><polygon id="lima-polygon8" points="1197,730.500000 1179.800000,812.300000 1198.100000,818.400000" fill="rgb(95,147,44)" stroke="none" stroke-width="1"/></g></g><path id="lima-path10" d="M-65.891473,812.500000L4935.586731,812.500000C4971.071885,812.500000,5000,820,5000,829.200000L5000,832.100000C5000,841.300000,4971.071885,848.800000,4935.586731,848.800000L-65.891473,848.800000" fill="rgb(139,195,74)" stroke="none" stroke-width="1"/><g id="lima-g8"><g id="lima-g9"><path id="lima-path11" d="M236,745.200000L197.400000,794.500000C188.300000,806.700000,183.700000,811.300000,171,809.700000C158.300000,808.100000,149.700000,777.200000,149.700000,760.400000C151.200000,732.400000,146.700000,703.500000,137.500000,677.100000L134.500000,674.100000C134.500000,674.100000,148.200000,715.800000,146.700000,740.200000C143.700000,769.700000,151.300000,820.500000,165,822C178.700000,823.500000,189.400000,823.500000,197.500000,806.800000C208.200000,783.900000,237.600000,748.400000,240.700000,746.800000C244.100000,745.200000,236,745.200000,236,745.200000Z" fill="rgb(124,85,51)" stroke="none" stroke-width="1"/><path id="lima-path12" d="M151.600000,794.500000C150.100000,789.900000,148.600000,786.900000,147,782.300000C145.500000,777.700000,144,774.700000,142.400000,770.100000C139.400000,762.500000,134.800000,754.900000,130.200000,747.200000C128.700000,745.700000,127.200000,744.200000,125.600000,742.600000C124.100000,741.100000,122.600000,739.600000,122.600000,736.500000C121.100000,733.500000,118,728.900000,116.500000,724.300000C113.500000,716.700000,111.900000,707.500000,110.400000,697.900000C111.900000,707,113.400000,714.700000,116.500000,722.300000C118,726.900000,119.500000,729.900000,122.600000,734.500000C124.100000,736,125.600000,737.500000,127.200000,739.100000C128.700000,740.600000,130.200000,742.100000,131.800000,743.700000C136.400000,751.300000,140.900000,758.900000,145.500000,766.600000C147,771.200000,148.500000,774.200000,150.100000,778.800000C151.600000,783.400000,153.100000,786.400000,154.700000,791L151.600000,794.500000Z" fill="rgb(124,85,51)" stroke="none" stroke-width="1"/><path id="lima-path13" d="M162.300000,809.800000C160.800000,799.100000,162.300000,788.500000,165.300000,778.800000C169.900000,769.700000,172.900000,760.500000,177.500000,749.300000C182.100000,740.200000,185.100000,729.500000,186.600000,719.800000C188.100000,709.100000,188.100000,698.500000,183.600000,688.800000C188.200000,697.900000,189.700000,708.600000,188.200000,719.800000C185.200000,730.500000,182.100000,739.600000,179.100000,750.800000C176.100000,759.900000,171.500000,770.600000,168.400000,780.300000C165.400000,789.400000,163.800000,800.100000,165.400000,809.800000L162.300000,809.800000Z" fill="rgb(124,85,51)" stroke="none" stroke-width="1"/><path id="lima-path14" d="M185.200000,809.800000L185.200000,809.800000L185.200000,809.800000C185.200000,808.300000,185.200000,808.300000,185.200000,809.800000L185.200000,809.800000L185.200000,806.800000L186.700000,805.300000L189.700000,802.300000C191.200000,800.800000,192.700000,797.700000,194.300000,796.200000C197.300000,791.600000,200.400000,787.100000,201.900000,782.500000C203.400000,779.500000,203.400000,777.900000,203.400000,774.900000C203.400000,771.900000,203.400000,768.800000,203.400000,767.300000C203.400000,761.200000,204.900000,756.600000,206.400000,750.500000C207.900000,745.900000,209.400000,739.800000,212.500000,735.300000C214,730.700000,217.100000,724.600000,221.600000,720.100000C226.200000,717.100000,229.200000,712.500000,232.300000,707.900000C235.300000,703.300000,238.400000,698.800000,239.900000,692.700000C238.400000,698.800000,236.900000,703.400000,233.800000,707.900000C230.800000,712.500000,227.700000,717,223.100000,720.100000C220.100000,724.700000,217,729.200000,215.500000,733.800000C214,738.400000,212.500000,744.500000,210.900000,749C209.400000,755.100000,209.400000,759.700000,207.900000,765.800000C207.900000,768.800000,207.900000,771.900000,207.900000,774.900000C207.900000,777.900000,206.400000,781,206.400000,782.500000C204.900000,787.100000,201.800000,793.200000,198.800000,797.700000C197.300000,800.700000,195.800000,802.300000,194.200000,805.300000L191.200000,808.300000C191.200000,808.300000,191.200000,809.800000,189.700000,809.800000L189.700000,809.800000L189.700000,809.800000L189.700000,809.800000L189.700000,809.800000L189.700000,809.800000L185.200000,809.800000Z" fill="rgb(124,85,51)" stroke="none" stroke-width="1"/><path id="lima-path15" d="M174.500000,755.900000C174.500000,751.300000,174.500000,745.200000,173,740.700000C173,737.700000,171.500000,736.100000,171.500000,733.100000C170,730.100000,170,728.500000,170,725.500000C170,720.900000,170,714.800000,170,710.300000C170,705.700000,171.500000,699.600000,171.500000,695.100000C170,699.700000,170,705.800000,170,710.300000C170,714.900000,170,721,170,725.500000C171.500000,730.100000,173,736.200000,174.600000,740.700000C176.200000,745.200000,176,751.300000,174.500000,755.900000L174.500000,755.900000Z" fill="rgb(124,85,51)" stroke="none" stroke-width="1"/><path id="lima-path16" d="M147.100000,737.600000C147.100000,723.900000,148.600000,709.600000,151.700000,695.900000C153.200000,689.800000,154.700000,682.200000,156.300000,676.100000C156.300000,670,154.800000,662.400000,151.700000,656.300000C154.700000,662.400000,156.300000,668.500000,156.300000,676.100000C154.800000,682.200000,154.800000,689.800000,153.300000,695.900000C151.800000,709.600000,150.300000,723.900000,150.300000,736L147.300000,736L147.100000,737.600000L147.100000,737.600000Z" fill="rgb(124,85,51)" stroke="none" stroke-width="1"/><path id="lima-path17" d="M174.500000,812.800000C176,800.600000,177.500000,786.400000,182.100000,774.200000C183.600000,771.200000,185.100000,768.100000,186.700000,765.100000C188.200000,762.100000,189.700000,759,191.300000,757.500000C194.300000,751.400000,197.400000,746.800000,198.900000,740.700000C203.500000,728.500000,206.500000,716.300000,209.600000,703.600000C211.100000,697.500000,211.100000,691.400000,212.600000,685.300000C214.100000,679.200000,217.200000,673.100000,220.200000,668.500000C217.200000,673.100000,214.100000,679.200000,212.600000,685.300000C211.100000,691.400000,211.100000,697.500000,209.600000,703.600000C208.100000,715.800000,205,728,200.500000,740.700000C199,746.800000,195.900000,752.900000,192.900000,757.500000C191.400000,760.500000,189.900000,763.600000,188.300000,765.100000C186.800000,768.100000,185.300000,771.200000,185.300000,774.200000C180.700000,786.400000,179.200000,798.600000,177.700000,811.300000L174.500000,812.800000Z" fill="rgb(124,85,51)" stroke="none" stroke-width="1"/><path id="lima-path18" d="M150.100000,791.500000C153.100000,780.800000,154.700000,768.600000,156.200000,757.400000C156.200000,745.200000,156.200000,734.500000,157.700000,721.800000C157.700000,709.600000,159.200000,698.900000,162.300000,686.200000C163.800000,680.100000,165.300000,675.500000,166.900000,669.400000C168.500000,663.300000,173,658.700000,176,655.700000C171.400000,660.300000,168.400000,664.800000,166.900000,670.900000C165.400000,677,163.900000,681.600000,162.300000,687.700000C160.800000,699.900000,159.300000,710.600000,159.300000,723.300000C159.300000,736,159.300000,746.200000,159.300000,758.900000C159.300000,771.600000,157.800000,781.800000,154.700000,794.500000L150.100000,791.500000Z" fill="rgb(124,85,51)" stroke="none" stroke-width="1"/></g><path id="lima-path19" d="M57.600000,705.100000C57.600000,699,62.200000,694.400000,68.300000,694.400000C69.800000,683.700000,77.400000,676.100000,88.100000,674.600000C88.100000,673.100000,88.100000,673.100000,88.100000,671.600000C88.100000,665.500000,92.700000,660.900000,97.200000,659.400000C92.600000,650.300000,95.700000,639.600000,104.800000,635C107.800000,633.500000,110.900000,632,113.900000,632C120,632,126.100000,635,129.100000,639.600000C132.100000,636.600000,135.200000,636.600000,139.800000,636.600000C142.800000,636.600000,144.400000,636.600000,145.900000,638.100000C147.400000,636.600000,147.400000,635.100000,148.900000,633.500000L148.900000,632C148.900000,627.400000,153.500000,622.900000,158,622.900000C159.500000,622.900000,162.600000,622.900000,164.100000,624.400000C165.600000,624.400000,165.600000,624.400000,167.100000,624.400000C170.100000,619.800000,174.700000,616.800000,180.800000,616.800000C186.900000,616.800000,193,619.800000,196,625.900000L196,625.900000C208.200000,625.900000,218.900000,636.600000,218.900000,650.300000C218.900000,661,211.300000,670.100000,200.600000,673.200000C196,676.200000,191.500000,677.800000,186.900000,677.800000C185.400000,677.800000,183.900000,677.800000,182.300000,677.800000C179.300000,679.300000,176.200000,679.300000,173.200000,679.300000C171.700000,679.300000,171.700000,679.300000,170.200000,679.300000C167.200000,688.400000,159.500000,694.500000,150.400000,694.500000L150.400000,694.500000C150.400000,694.500000,150.400000,694.500000,150.400000,696C150.400000,702.100000,144.300000,706.700000,138.200000,706.700000C136.700000,706.700000,135.200000,706.700000,132.100000,705.200000C130.600000,708.200000,127.500000,711.300000,123,712.800000C124.500000,715.800000,126,717.400000,126,720.400000C132.100000,721.900000,136.700000,726.500000,138.200000,732.600000C138.200000,738.700000,132.100000,744.800000,126,744.800000C126,746.300000,127.500000,747.800000,127.500000,749.400000C127.500000,755.500000,122.900000,760.100000,116.800000,760.100000C112.200000,760.100000,109.200000,757.100000,107.700000,754C104.700000,755.500000,103.100000,755.500000,100.100000,755.500000C92.500000,755.500000,84.900000,749.400000,83.300000,741.800000C83.300000,740.300000,83.300000,737.200000,84.800000,735.700000C77.200000,735.700000,71.100000,729.600000,71.100000,723.500000C71.100000,722,71.100000,720.500000,72.600000,718.900000L72.600000,718.900000C65.200000,717.300000,57.600000,712.700000,57.600000,705.100000L57.600000,705.100000Z" fill="rgb(86,105,11)" stroke="none" stroke-width="1"/><path id="lima-path20" d="M96.200000,691.400000C97.700000,683.800000,103.800000,676.200000,111.400000,676.200000L111.400000,674.700000C111.400000,670.100000,114.400000,665.600000,119,664C117.500000,662.500000,117.500000,659.400000,117.500000,656.400000C117.500000,648.800000,125.100000,641.200000,132.700000,641.200000L132.700000,641.200000C137.300000,641.200000,141.800000,644.200000,144.900000,647.300000C147.900000,645.800000,149.500000,644.300000,152.500000,644.300000C154,644.300000,155.500000,644.300000,158.600000,645.800000C160.100000,644.300000,160.100000,642.800000,161.600000,641.200000L161.600000,641.200000C161.600000,636.600000,164.600000,633.600000,169.200000,633.600000C170.700000,633.600000,172.200000,633.600000,173.800000,635.100000L176.800000,635.100000C181.400000,629,189,627.500000,195.100000,632.100000C196.600000,633.600000,198.100000,635.100000,199.700000,636.700000L199.700000,636.700000C208.800000,636.700000,218,644.300000,218,653.500000C216.500000,662.600000,208.900000,670.300000,199.700000,671.800000C195.100000,674.800000,190.600000,676.400000,186,676.400000C184.500000,676.400000,183,676.400000,181.400000,676.400000C178.400000,677.900000,175.300000,677.900000,172.300000,677.900000C170.800000,677.900000,170.800000,677.900000,169.300000,677.900000C166.300000,687,158.600000,693.100000,149.500000,693.100000L149.500000,693.100000C149.500000,693.100000,149.500000,693.100000,149.500000,694.600000C149.500000,700.700000,143.400000,705.300000,137.300000,705.300000C135.800000,705.300000,134.300000,705.300000,131.200000,703.800000C129.700000,706.800000,126.600000,709.900000,122.100000,711.400000C123.600000,714.400000,125.100000,716,125.100000,719C131.200000,720.500000,135.800000,725.100000,137.300000,731.200000C137.300000,735.800000,134.300000,740.300000,129.700000,741.900000C128.200000,740.400000,126.700000,738.900000,126.700000,737.300000C125.200000,738.800000,122.100000,738.800000,120.600000,738.800000C114.500000,738.800000,108.400000,734.200000,106.900000,728.100000C106.900000,726.600000,106.900000,725.100000,108.400000,723.500000C102.300000,723.500000,97.700000,718.900000,97.700000,712.800000C97.700000,711.300000,97.700000,711.300000,97.700000,709.800000L97.700000,709.800000C91.600000,709.800000,87,706.800000,87,700.700000C88.600000,695.900000,91.700000,692.900000,96.200000,691.400000Z" fill="rgb(103,125,19)" stroke="none" stroke-width="1"/><path id="lima-path21" d="M174.500000,686.800000C176,686.800000,177.500000,686.800000,179.100000,686.800000C173,680.700000,173,671.600000,177.600000,665.500000C180.600000,662.500000,185.200000,660.900000,189.800000,660.900000L189.800000,660.900000C189.800000,659.400000,189.800000,659.400000,189.800000,657.900000C189.800000,650.300000,195.900000,644.200000,203.500000,644.200000C206.500000,644.200000,211.100000,645.700000,212.600000,648.800000C218.700000,641.200000,226.300000,636.600000,237,636.600000C253.800000,636.600000,268,651.800000,268,669.100000L268,669.100000C272.600000,670.600000,275.600000,675.200000,275.600000,679.800000C275.600000,681.300000,274.100000,682.800000,274.100000,684.400000C281.700000,685.900000,286.300000,693.500000,286.300000,701.200000C286.300000,704.200000,286.300000,707.300000,284.800000,708.800000C290.900000,708.800000,295.500000,713.400000,297,719.500000C297,721,295.500000,724.100000,295.500000,725.600000C300.100000,728.600000,304.600000,733.200000,304.600000,739.300000C304.600000,748.400000,295.500000,754.500000,283.300000,754.500000L281.800000,754.500000L281.800000,754.500000C281.800000,759.100000,277.200000,762.100000,272.700000,762.100000L271.200000,762.100000C269.700000,768.200000,263.600000,774.300000,257.500000,774.300000C251.400000,774.300000,245.300000,771.300000,243.800000,765.200000L243.800000,765.200000C239.200000,765.200000,234.700000,760.600000,234.700000,756.100000C234.700000,754.600000,234.700000,754.600000,234.700000,753.100000C230.100000,751.600000,227.100000,747,227.100000,742.400000C225.600000,742.400000,224.100000,742.400000,224.100000,742.400000C218,742.400000,211.900000,736.300000,211.900000,730.200000C211.900000,727.200000,213.400000,724.100000,216.500000,721.100000C215,719.600000,213.500000,718.100000,213.500000,715C212,716.500000,210.500000,716.500000,208.900000,716.500000C207.400000,721.100000,202.800000,724.100000,196.700000,724.100000C195.200000,724.100000,192.100000,724.100000,190.600000,722.600000C187.600000,725.600000,183,727.200000,179.900000,727.200000C169.200000,727.200000,160.100000,718.100000,160.100000,707.400000C160.100000,696.700000,163.800000,686.800000,174.500000,686.800000L174.500000,686.800000Z" fill="rgb(113,135,25)" stroke="none" stroke-width="1"/><path id="lima-path22" d="M183.600000,685.300000C185.100000,685.300000,185.100000,685.300000,186.600000,685.300000C182,680.700000,182,671.600000,186.600000,667C189.600000,664,192.700000,664,195.700000,664L195.700000,664C195.700000,662.500000,195.700000,662.500000,195.700000,661C195.700000,654.900000,200.300000,648.800000,207.900000,648.800000C210.900000,648.800000,214,650.300000,215.500000,651.800000C220.100000,645.700000,227.700000,641.100000,235.300000,641.100000C249,641.100000,259.700000,653.300000,259.700000,667.500000L259.700000,667.500000L259.700000,667.500000C262.700000,667.500000,265.800000,670.500000,265.800000,675.100000C265.800000,676.600000,265.800000,678.100000,264.300000,679.700000C270.400000,681.200000,275,687.300000,275,693.400000C275,694.900000,275,698,273.500000,699.500000C278.100000,699.500000,282.600000,704.100000,282.600000,708.600000C282.600000,710.100000,282.600000,711.600000,281.100000,713.200000C285.700000,714.700000,288.700000,719.300000,288.700000,723.900000C288.700000,731.500000,281.100000,736.100000,271.900000,736.100000L270.400000,736.100000C270.400000,740.700000,265.800000,742.200000,262.800000,742.200000L261.300000,742.200000C259.800000,748.300000,253.700000,752.900000,247.600000,751.300000C243,749.800000,240,748.300000,238.500000,743.700000L238.500000,743.700000C233.900000,743.700000,230.900000,740.700000,230.900000,736.100000C230.900000,734.600000,230.900000,734.600000,230.900000,733.100000C227.900000,731.600000,224.800000,728.500000,224.800000,724C223.300000,724,223.300000,724,221.800000,724C215.700000,724,212.700000,719.400000,211.100000,714.900000C211.100000,711.900000,212.600000,710.300000,214.100000,707.300000C212.600000,705.800000,212.600000,704.300000,211.100000,702.700000C209.600000,702.700000,208.100000,704.200000,208.100000,704.200000C206.600000,707.200000,203.500000,710.300000,199,710.300000C197.500000,710.300000,196,710.300000,194.400000,708.800000C191.400000,711.800000,188.300000,711.800000,185.300000,711.800000C176.200000,711.800000,170.100000,704.200000,170.100000,696.600000C168.400000,692.900000,176,685.300000,183.600000,685.300000L183.600000,685.300000Z" fill="rgb(131,156,33)" stroke="none" stroke-width="1"/></g><text id="lima-text1" dx="0" dy="0" font-family="AkzidenzGroteskBQ-Super" font-size="69.614500" transform="matrix(1 0 0 1 220.81299999999999 841.50099999999998)" fill="rgb(171,224,214)" stroke="none" stroke-width="1"><![CDATA[LIMA]]></text><text id="lima-text2" dx="0" dy="0" font-family="AkzidenzGroteskBQ-Super" font-size="69.614500" transform="matrix(1 0 0 1 220.81299999999999 841.50099999999998)" fill="none" stroke="rgb(37,89,124)" stroke-width="0.126100" stroke-miterlimit="5.043900"><![CDATA[LIMA]]></text><g id="lima-g10"><g id="lima-g11"><g id="lima-g12"><path id="lima-path23" d="M548,825L530.200000,380.300000L569.800000,380.300000L569.800000,340.700000C569.800000,340.700000,712.600000,255.800000,909.800000,307.700000L909.800000,331L935.200000,336.600000L916.900000,831.600000C917.500000,832.700000,768.600000,872.300000,548,825Z" fill="rgb(40,36,31)" stroke="none" stroke-width="1"/><path id="lima-path24" d="M523.100000,776.200000L473.300000,776.200000C473.300000,776.200000,622.200000,861.600000,902.700000,806.700000L871.200000,804.700000C779.300000,817.400000,577,815.400000,523.100000,776.200000Z" fill="rgb(212,206,202)" stroke="none" stroke-width="1"/></g><path id="lima-path25" d="M860.100000,297.500000L870.800000,284.300000C870.800000,284.300000,790.500000,263,736.600000,292.900000C736.600000,293.400000,797.600000,287.300000,860.100000,297.500000Z" fill="rgb(61,57,49)" stroke="none" stroke-width="1"/></g><path id="lima-path26" d="M760,350.400000L737.600000,350.400000L737.600000,380.400000L569.400000,385L569.400000,345.400000C569.400000,345.400000,671,300.700000,759.500000,305.800000L760,350.400000Z" fill="rgb(112,137,149)" stroke="none" stroke-width="1"/><g id="lima-g13"><line id="lima-line1" x1="517" y1="352.400000" x2="534.800000" y2="782.800000" fill="none" stroke="rgb(17,19,20)" stroke-width="0.898600" stroke-linecap="round" stroke-linejoin="round" stroke-miterlimit="1.031000"/><path id="lima-path27" d="M949,285.300000C949,285.300000,748.800000,198.400000,517.500000,353.400000" fill="none" stroke="rgb(17,19,20)" stroke-width="1.833100" stroke-linecap="round" stroke-linejoin="round" stroke-miterlimit="1.031000"/><path id="lima-path28" d="M921.600000,787.400000C921.600000,787.400000,955.700000,304.100000,949,284.800000" fill="none" stroke="rgb(17,19,20)" stroke-width="0.754800" stroke-linecap="round" stroke-linejoin="round" stroke-miterlimit="1.031000"/></g><path id="lima-path29" d="M932.300000,337.100000L932.300000,318.800000C932.300000,318.800000,773.700000,259.800000,578.600000,341.200000" fill="none" stroke="rgb(17,19,20)" stroke-width="0.754800" stroke-linecap="round" stroke-linejoin="round" stroke-miterlimit="1.031000"/><line id="lima-line2" x1="914" y1="275.100000" x2="885.500000" y2="304.100000" fill="none" stroke="rgb(65,62,57)" stroke-width="0.862700" stroke-linecap="round" stroke-linejoin="round" stroke-miterlimit="1.031000"/><g id="lima-g14"><path id="lima-path30" d="M533.300000,755.400000C533.300000,755.400000,709.700000,810.300000,923.100000,765.100000" fill="none" stroke="rgb(65,62,57)" stroke-width="0.862700" stroke-miterlimit="2.577500"/><path id="lima-path31" d="M532.800000,734.600000C532.800000,734.600000,704.600000,781.400000,923.100000,739.200000" fill="none" stroke="rgb(65,62,57)" stroke-width="0.862700" stroke-linecap="round" stroke-linejoin="round" stroke-miterlimit="1.031000"/><path id="lima-path32" d="M926.700000,712.700000C926.700000,712.700000,769.200000,756.900000,531.800000,709.700000" fill="none" stroke="rgb(65,62,57)" stroke-width="0.862700" stroke-linecap="round" stroke-linejoin="round" stroke-miterlimit="1.031000"/><path id="lima-path33" d="M529.700000,685.800000C529.700000,685.800000,738.100000,729.500000,928.100000,685.800000" fill="none" stroke="rgb(65,62,57)" stroke-width="0.862700" stroke-linecap="round" stroke-linejoin="round" stroke-miterlimit="1.031000"/><path id="lima-path34" d="M929.700000,665.500000C929.700000,665.500000,802.100000,696,529.700000,661.900000" fill="none" stroke="rgb(65,62,57)" stroke-width="0.862700" stroke-linecap="round" stroke-linejoin="round" stroke-miterlimit="1.031000"/><path id="lima-path35" d="M931.200000,640C931.200000,640,747.200000,668,528.700000,637" fill="none" stroke="rgb(65,62,57)" stroke-width="0.862700" stroke-linecap="round" stroke-linejoin="round" stroke-miterlimit="1.031000"/><path id="lima-path36" d="M528.700000,612.100000C528.700000,612.100000,737.600000,640.600000,932.700000,615.700000" fill="none" stroke="rgb(65,62,57)" stroke-width="0.862700" stroke-linecap="round" stroke-linejoin="round" stroke-miterlimit="1.031000"/><path id="lima-path37" d="M527.200000,588.700000C527.200000,588.700000,735.600000,613.100000,934.800000,592.300000" fill="none" stroke="rgb(65,62,57)" stroke-width="0.862700" stroke-linecap="round" stroke-linejoin="round" stroke-miterlimit="1.031000"/><path id="lima-path38" d="M935.800000,569.400000C935.800000,569.400000,744.700000,576.500000,522.600000,567.400000" fill="none" stroke="rgb(65,62,57)" stroke-width="0.862700" stroke-linecap="round" stroke-linejoin="round" stroke-miterlimit="1.031000"/><path id="lima-path39" d="M937.300000,545.500000C937.300000,545.500000,599.800000,548.500000,524.600000,540.900000" fill="none" stroke="rgb(65,62,57)" stroke-width="0.862700" stroke-linecap="round" stroke-linejoin="round" stroke-miterlimit="1.031000"/><path id="lima-path40" d="M938.900000,520.600000C938.900000,520.600000,737.100000,521.600000,523.700000,516.500000" fill="none" stroke="rgb(65,62,57)" stroke-width="0.862700" stroke-linecap="round" stroke-linejoin="round" stroke-miterlimit="1.031000"/><path id="lima-path41" d="M938.900000,496.700000C938.900000,496.700000,732.600000,492.600000,523.700000,492.600000" fill="none" stroke="rgb(65,62,57)" stroke-width="0.862700" stroke-linecap="round" stroke-linejoin="round" stroke-miterlimit="1.031000"/><path id="lima-path42" d="M941.900000,470.300000C941.900000,470.300000,734,456.600000,522.100000,466.700000" fill="none" stroke="rgb(65,62,57)" stroke-width="0.862700" stroke-linecap="round" stroke-linejoin="round" stroke-miterlimit="1.031000"/><path id="lima-path43" d="M943.400000,445.400000C943.400000,445.400000,739.600000,432.200000,521.100000,441.300000" fill="none" stroke="rgb(65,62,57)" stroke-width="0.862700" stroke-linecap="round" stroke-linejoin="round" stroke-miterlimit="1.031000"/><path id="lima-path44" d="M945,421C945,421,739.700000,399.100000,520.100000,417.400000" fill="none" stroke="rgb(65,62,57)" stroke-width="0.862700" stroke-linecap="round" stroke-linejoin="round" stroke-miterlimit="1.031000"/><path id="lima-path45" d="M519.100000,393C519.100000,393,738.100000,375.700000,946,397.100000" fill="none" stroke="rgb(65,62,57)" stroke-width="0.862700" stroke-linecap="round" stroke-linejoin="round" stroke-miterlimit="1.031000"/><path id="lima-path46" d="M947.500000,370.200000C947.500000,370.200000,761,332.100000,530.800000,365.100000" fill="none" stroke="rgb(65,62,57)" stroke-width="0.862700" stroke-linecap="round" stroke-linejoin="round" stroke-miterlimit="1.031000"/><path id="lima-path47" d="M569.400000,344.800000C767.100000,302.100000,947.500000,344.800000,947.500000,344.800000" fill="none" stroke="rgb(65,62,57)" stroke-width="0.862700" stroke-linecap="round" stroke-linejoin="round" stroke-miterlimit="1.031000"/><path id="lima-path48" d="M872.800000,800.100000C892.100000,778.200000,908.900000,753.900000,921.600000,727.400000" fill="none" stroke="rgb(65,62,57)" stroke-width="0.862700" stroke-linecap="round" stroke-linejoin="round" stroke-miterlimit="1.031000"/><path id="lima-path49" d="M819.900000,800.100000C819.900000,800.100000,876.800000,733.500000,923.600000,661.900000" fill="none" stroke="rgb(65,62,57)" stroke-width="0.862700" stroke-linecap="round" stroke-linejoin="round" stroke-miterlimit="1.031000"/><path id="lima-path50" d="M745.700000,806.200000C745.700000,806.200000,853.400000,699,926.600000,572.400000" fill="none" stroke="rgb(65,62,57)" stroke-width="0.862700" stroke-linecap="round" stroke-linejoin="round" stroke-miterlimit="1.031000"/><path id="lima-path51" d="M674.100000,806.200000C674.100000,806.200000,816.400000,670,929.700000,495.200000" fill="none" stroke="rgb(65,62,57)" stroke-width="0.862700" stroke-linecap="round" stroke-linejoin="round" stroke-miterlimit="1.031000"/><path id="lima-path52" d="M605.500000,795.600000C605.500000,795.600000,776.800000,626.400000,935.800000,410.900000" fill="none" stroke="rgb(65,62,57)" stroke-width="0.862700" stroke-linecap="round" stroke-linejoin="round" stroke-miterlimit="1.031000"/><path id="lima-path53" d="M928.200000,340.700000C928.200000,340.700000,742.200000,580.600000,551.600000,782.900000" fill="none" stroke="rgb(65,62,57)" stroke-width="0.862700" stroke-linecap="round" stroke-linejoin="round" stroke-miterlimit="1.031000"/><line id="lima-line3" x1="889.600000" y1="307.200000" x2="543.500000" y2="710.200000" fill="none" stroke="rgb(65,62,57)" stroke-width="0.862700" stroke-linecap="round" stroke-linejoin="round" stroke-miterlimit="1.031000"/><path id="lima-path54" d="M537.900000,561.800000C537.900000,561.800000,617.200000,445.400000,745.800000,299.600000" fill="none" stroke="rgb(65,62,57)" stroke-width="0.862700" stroke-linecap="round" stroke-linejoin="round" stroke-miterlimit="1.031000"/><path id="lima-path55" d="M534.800000,479.400000C534.800000,479.400000,626.300000,350.300000,664.900000,312.700000" fill="none" stroke="rgb(65,62,57)" stroke-width="0.862700" stroke-linecap="round" stroke-linejoin="round" stroke-miterlimit="1.031000"/><line id="lima-line4" x1="559.700000" y1="361" x2="531.800000" y2="410.300000" fill="none" stroke="rgb(65,62,57)" stroke-width="0.862700" stroke-linecap="round" stroke-linejoin="round" stroke-miterlimit="1.031000"/><path id="lima-path56" d="M847.900000,262.400000L824,299C651.700000,496.200000,540.900000,639,540.900000,639" fill="none" stroke="rgb(65,62,57)" stroke-width="0.862700" stroke-linecap="round" stroke-linejoin="round" stroke-miterlimit="1.031000"/></g><line id="lima-line5" x1="770.600000" y1="260.900000" x2="745.700000" y2="298" fill="none" stroke="rgb(65,62,57)" stroke-width="0.862700" stroke-linecap="round" stroke-linejoin="round" stroke-miterlimit="1.031000"/><line id="lima-line6" x1="687.300000" y1="275.100000" x2="674.100000" y2="305.100000" fill="none" stroke="rgb(65,62,57)" stroke-width="0.862700" stroke-linecap="round" stroke-linejoin="round" stroke-miterlimit="1.031000"/><line id="lima-line7" x1="607" y1="303.600000" x2="601.400000" y2="326.500000" fill="none" stroke="rgb(65,62,57)" stroke-width="0.862700" stroke-linecap="round" stroke-linejoin="round" stroke-miterlimit="1.031000"/><g id="lima-g15"><g id="lima-g16"><polygon id="lima-polygon9" points="571.900000,372.200000 562.300000,385.400000 562.300000,427.100000 601.900000,427.100000 611.100000,419 611.100000,372.200000" fill="rgb(150,156,165)" stroke="none" stroke-width="1"/><polygon id="lima-polygon10" points="574,417.400000 596.300000,409.800000 596.300000,379.800000 574,386.900000" fill="rgb(34,40,40)" stroke="none" stroke-width="1"/></g><g id="lima-g17"><rect id="lima-rect1" width="8.100000" height="36.600000" rx="0" ry="0" transform="matrix(1 0 0 1 624.29999999999995 377.80000000000001)" fill="rgb(150,156,165)" stroke="none" stroke-width="1"/><path id="lima-path57" d="M634.400000,413.900000L642,413.900000L642,396.100000C642,394.600000,642.500000,393.600000,643.500000,392.500000L643.500000,392.500000C645,390.500000,648.100000,390,650.100000,392C650.100000,392,650.100000,392,650.600000,392.500000L650.600000,392.500000C651.600000,393,652.100000,394.500000,652.100000,395.500000L652.100000,414.300000L660.200000,414.300000L660.200000,393C660.200000,393,659.700000,385.400000,653.600000,384.900000L642.900000,384.900000C642.900000,384.900000,634.800000,385.400000,634.800000,392.500000L634.400000,413.900000L634.400000,413.900000Z" fill="rgb(150,156,165)" stroke="none" stroke-width="1"/><path id="lima-path58" d="M783.900000,413.900000L792,413.900000L792,396.100000C792,394.600000,792.500000,393.600000,793.500000,392.500000L793.500000,392.500000C795.500000,390.500000,798.600000,390,800.600000,392L800.600000,392L800.600000,392C801.600000,392.500000,802.100000,394,802.100000,395L802.100000,413.800000L810.200000,413.800000L810.200000,393C810.200000,393,809.700000,385.400000,803.600000,384.900000L792.400000,384.900000C792.400000,384.900000,784.300000,385.400000,784.300000,392.500000L783.900000,413.900000L783.900000,413.900000L783.900000,413.900000Z" fill="rgb(150,156,165)" stroke="none" stroke-width="1"/><path id="lima-path59" d="M661.900000,377.800000L670,377.800000L670,385.400000L679.100000,385.400000L677.600000,390.500000L670,390.500000L670,404.200000C670,404.700000,670.500000,405.700000,670.500000,406.200000L670.500000,406.200000C671.500000,407.700000,673,407.700000,674.100000,406.700000L674.100000,406.700000L675.600000,405.700000L679.200000,409.300000L679.200000,409.300000C677.700000,411.300000,675.600000,413.400000,673.100000,413.900000C670.100000,414.400000,667,414.400000,664.500000,412.400000L664.500000,412.400000C661.500000,410.400000,660.900000,404.300000,660.900000,400.700000L660.900000,377.800000L661.900000,377.800000L661.900000,377.800000Z" fill="rgb(150,156,165)" stroke="none" stroke-width="1"/><path id="lima-path60" d="M687.800000,400.700000L696.900000,401.200000C702,401.700000,704.500000,399.700000,706,397.600000C708,394.600000,708,391.500000,706,388.500000C703.500000,384.400000,699.400000,381.900000,694.300000,381.900000C686.200000,381.900000,680.100000,389,680.100000,397.700000C680.100000,406.400000,685.700000,412.400000,693.800000,412.400000C697.400000,412.400000,700.400000,411.900000,704,411.400000C704,411.400000,704.500000,406.800000,703,406.800000C684.800000,407.300000,687.800000,400.700000,687.800000,400.700000ZM694.900000,388.500000C701.500000,388.500000,701,396.100000,701,396.100000L687.800000,396.100000C687.300000,387.500000,694.400000,388.500000,694.900000,388.500000L694.900000,388.500000Z" fill="rgb(150,156,165)" stroke="none" stroke-width="1"/><path id="lima-path61" d="M774.200000,395.100000L765.100000,394.600000C760,394.100000,757,396.100000,756,398.200000C754,401.200000,754,404.300000,756,407.300000C758.500000,411.400000,762.600000,413.900000,767.700000,413.900000C775.800000,413.900000,781.900000,406.800000,781.900000,398.100000C781.900000,389.500000,776.300000,383.400000,768.200000,383.400000C764.600000,383.400000,761.600000,383.900000,758,384.400000C758,384.400000,757.500000,389.500000,759,389C777.200000,388.500000,774.200000,395.100000,774.200000,395.100000ZM767.100000,407.300000C760.500000,407.300000,761,399.700000,761,399.700000L774.200000,399.700000C774.700000,408.300000,767.100000,407.300000,767.100000,407.300000Z" fill="rgb(150,156,165)" stroke="none" stroke-width="1"/><path id="lima-path62" d="M716.800000,412.900000L716.800000,392C716.800000,392,716.800000,390,724.400000,390L724.400000,382.400000L716.800000,382.400000C713.800000,382.400000,711.700000,383.900000,710.200000,386.500000C709.700000,388,709.200000,389,709.700000,390.100000L709.700000,412.500000L716.800000,412.500000" fill="rgb(150,156,165)" stroke="none" stroke-width="1"/><path id="lima-path63" d="M740.100000,383.400000C737.100000,383.400000,735,383.900000,732.500000,385.400000L732.500000,377.300000L725.400000,377.300000L725.400000,403.200000C726.900000,409.300000,734,411.800000,734,411.800000L734,411.800000C736,412.800000,738.100000,413.300000,740.100000,413.300000C748.200000,413.300000,753.300000,406.200000,753.300000,398.100000C753.400000,390,748.300000,383.400000,740.100000,383.400000ZM740.100000,407.300000C736,407.300000,732.500000,403.200000,732.500000,398.200000C732.500000,393.100000,736.100000,389.100000,740.100000,389.100000C744.200000,389.100000,747.700000,393.200000,747.700000,398.200000C747.300000,403.200000,744.200000,407.300000,740.100000,407.300000L740.100000,407.300000Z" fill="rgb(150,156,165)" stroke="none" stroke-width="1"/><polygon id="lima-polygon11" points="812.300000,378.300000 822.500000,378.300000 823,396.100000 832.100000,386.900000 842.300000,386.900000 829.100000,400.700000 841.800000,415.900000 830.100000,415.900000 821.500000,402.700000 821.500000,414.900000 812.300000,414.900000" fill="rgb(150,156,165)" stroke="none" stroke-width="1"/></g></g></g></g><script><![CDATA[!function(t,n){"object"==typeof exports&&"undefined"!=typeof module?module.exports=n():"function"==typeof define&&define.amd?define(n):(t="undefined"!=typeof globalThis?globalThis:t||self).__SVGATOR_PLAYER__=n()}(this,(function(){"use strict";function t(n){return(t="function"==typeof Symbol&&"symbol"==typeof Symbol.iterator?function(t){return typeof t}:function(t){return t&&"function"==typeof Symbol&&t.constructor===Symbol&&t!==Symbol.prototype?"symbol":typeof t})(n)}function n(t,n){if(!(t instanceof n))throw new TypeError("Cannot call a class as a function")}function e(t,n){for(var e=0;e<n.length;e++){var r=n[e];r.enumerable=r.enumerable||!1,r.configurable=!0,"value"in r&&(r.writable=!0),Object.defineProperty(t,r.key,r)}}function r(t,n,r){return n&&e(t.prototype,n),r&&e(t,r),t}function i(t){return(i=Object.setPrototypeOf?Object.getPrototypeOf:function(t){return t.__proto__||Object.getPrototypeOf(t)})(t)}function u(t,n){return(u=Object.setPrototypeOf||function(t,n){return t.__proto__=n,t})(t,n)}function o(t,n){return!n||"object"!=typeof n&&"function"!=typeof n?function(t){if(void 0===t)throw new ReferenceError("this hasn't been initialised - super() hasn't been called");return t}(t):n}function a(t){var n=function(){if("undefined"==typeof Reflect||!Reflect.construct)return!1;if(Reflect.construct.sham)return!1;if("function"==typeof Proxy)return!0;try{return Boolean.prototype.valueOf.call(Reflect.construct(Boolean,[],(function(){}))),!0}catch(t){return!1}}();return function(){var e,r=i(t);if(n){var u=i(this).constructor;e=Reflect.construct(r,arguments,u)}else e=r.apply(this,arguments);return o(this,e)}}function l(t,n,e){return(l="undefined"!=typeof Reflect&&Reflect.get?Reflect.get:function(t,n,e){var r=function(t,n){for(;!Object.prototype.hasOwnProperty.call(t,n)&&null!==(t=i(t)););return t}(t,n);if(r){var u=Object.getOwnPropertyDescriptor(r,n);return u.get?u.get.call(e):u.value}})(t,n,e||t)}var s=Math.abs;function f(t){return t}function c(t,n,e){var r=1-e;return 3*e*r*(t*r+n*e)+e*e*e}function h(){var t=arguments.length>0&&void 0!==arguments[0]?arguments[0]:0,n=arguments.length>1&&void 0!==arguments[1]?arguments[1]:0,e=arguments.length>2&&void 0!==arguments[2]?arguments[2]:1,r=arguments.length>3&&void 0!==arguments[3]?arguments[3]:1;return t<0||t>1||e<0||e>1?null:s(t-n)<=1e-5&&s(e-r)<=1e-5?f:function(i){if(i<=0)return t>0?i*n/t:0===n&&e>0?i*r/e:0;if(i>=1)return e<1?1+(i-1)*(r-1)/(e-1):1===e&&t<1?1+(i-1)*(n-1)/(t-1):1;for(var u,o=0,a=1;o<a;){var l=c(t,e,u=(o+a)/2);if(s(i-l)<1e-5)break;l<i?o=u:a=u}return c(n,r,u)}}function v(){return 1}function d(t){return 1===t?1:0}function y(){var t=arguments.length>0&&void 0!==arguments[0]?arguments[0]:1,n=arguments.length>1&&void 0!==arguments[1]?arguments[1]:0;if(1===t){if(0===n)return d;if(1===n)return v}var e=1/t;return function(t){return t>=1?1:(t+=n*e)-t%e}}function g(t){var n=arguments.length>1&&void 0!==arguments[1]?arguments[1]:2;if(Number.isInteger(t))return t;var e=Math.pow(10,n);return Math.round(t*e)/e}var p=Math.PI/180;function m(t,n,e){return t>=.5?e:n}function b(t,n,e){return 0===t||n===e?n:t*(e-n)+n}function w(t,n,e){var r=b(t,n,e);return r<=0?0:r}function x(t,n,e){return 0===t?n:1===t?e:{x:b(t,n.x,e.x),y:b(t,n.y,e.y)}}function A(t,n,e){return 0===t?n:1===t?e:{x:w(t,n.x,e.x),y:w(t,n.y,e.y)}}function k(t,n,e){var r=function(t,n,e){return Math.round(b(t,n,e))}(t,n,e);return r<=0?0:r>=255?255:r}function _(t,n,e){return 0===t?n:1===t?e:{r:k(t,n.r,e.r),g:k(t,n.g,e.g),b:k(t,n.b,e.b),a:b(t,null==n.a?1:n.a,null==e.a?1:e.a)}}function S(t,n,e){if(0===t)return n;if(1===t)return e;var r=n.length;if(r!==e.length)return m(t,n,e);for(var i=[],u=0;u<r;u++)i.push(_(t,n[u],e[u]));return i}function M(t,n,e){var r=n.length;if(r!==e.length)return m(t,n,e);for(var i=new Array(r),u=0;u<r;u++)i[u]=b(t,n[u],e[u]);return i}function O(t,n){for(var e=[],r=0;r<t;r++)e.push(n);return e}function E(t,n){if(--n<=0)return t;var e=(t=Object.assign([],t)).length;do{for(var r=0;r<e;r++)t.push(t[r])}while(--n>0);return t}var B,I=function(){function t(e){n(this,t),this.list=e,this.length=e.length}return r(t,[{key:"setAttribute",value:function(t,n){for(var e=this.list,r=0;r<this.length;r++)e[r].setAttribute(t,n)}},{key:"removeAttribute",value:function(t){for(var n=this.list,e=0;e<this.length;e++)n[e].removeAttribute(t)}},{key:"style",value:function(t,n){for(var e=this.list,r=0;r<this.length;r++)e[r].style[t]=n}}]),t}(),j=/-./g,P=function(t,n){return n.toUpperCase()};function T(t){return"function"==typeof t?t:m}function F(t){return t?"function"==typeof t?t:Array.isArray(t)?function(t){var n=arguments.length>1&&void 0!==arguments[1]?arguments[1]:f;if(!Array.isArray(t))return n;switch(t.length){case 1:return y(t[0])||n;case 2:return y(t[0],t[1])||n;case 4:return h(t[0],t[1],t[2],t[3])||n}return n}(t,null):function(t,n){var e=arguments.length>2&&void 0!==arguments[2]?arguments[2]:f;switch(t){case"linear":return f;case"steps":return y(n.steps||1,n.jump||0)||e;case"bezier":case"cubic-bezier":return h(n.x1||0,n.y1||0,n.x2||0,n.y2||0)||e}return e}(t.type,t.value,null):null}function R(t,n,e){var r=arguments.length>3&&void 0!==arguments[3]&&arguments[3],i=n.length-1;if(t<=n[0].t)return r?[0,0,n[0].v]:n[0].v;if(t>=n[i].t)return r?[i,1,n[i].v]:n[i].v;var u,o=n[0],a=null;for(u=1;u<=i;u++){if(!(t>n[u].t)){a=n[u];break}o=n[u]}return null==a?r?[i,1,n[i].v]:n[i].v:o.t===a.t?r?[u,1,a.v]:a.v:(t=(t-o.t)/(a.t-o.t),o.e&&(t=o.e(t)),r?[u,t,e(t,o.v,a.v)]:e(t,o.v,a.v))}function C(t,n){var e=arguments.length>2&&void 0!==arguments[2]?arguments[2]:null;return t&&t.length?"function"!=typeof n?null:("function"!=typeof e&&(e=null),function(r){var i=R(r,t,n);return null!=i&&e&&(i=e(i)),i}):null}function N(t,n){return t.t-n.t}function q(n,e,r,i,u){var o,a="@"===r[0],l="#"===r[0],s=B[r],f=m;switch(a?(o=r.substr(1),r=o.replace(j,P)):l&&(r=r.substr(1)),t(s)){case"function":if(f=s(i,u,R,F,r,a,e,n),l)return f;break;case"string":f=C(i,T(s));break;case"object":if((f=C(i,T(s.i),s.f))&&"function"==typeof s.u)return s.u(e,f,r,a,n)}return f?function(t,n,e){var r=arguments.length>3&&void 0!==arguments[3]&&arguments[3];if(r)return t instanceof I?function(r){return t.style(n,e(r))}:function(r){return t.style[n]=e(r)};if(Array.isArray(n)){var i=n.length;return function(r){var u=e(r);if(null==u)for(var o=0;o<i;o++)t[o].removeAttribute(n);else for(var a=0;a<i;a++)t[a].setAttribute(n,u)}}return function(r){var i=e(r);null==i?t.removeAttribute(n):t.setAttribute(n,i)}}(e,r,f,a):null}function V(n,e,r,i){if(!i||"object"!==t(i))return null;var u=null,o=null;return Array.isArray(i)?o=function(t){if(!t||!t.length)return null;for(var n=0;n<t.length;n++)t[n].e&&(t[n].e=F(t[n].e));return t.sort(N)}(i):(o=i.keys,u=i.data||null),o?q(n,e,r,o,u):null}function L(t,n,e){if(!e)return null;var r=[];for(var i in e)if(e.hasOwnProperty(i)){var u=V(t,n,i,e[i]);u&&r.push(u)}return r.length?r:null}function z(t,n){if(!n.duration||n.duration<0)return null;var e=function(t,n){if(!n)return null;var e=[];if(Array.isArray(n))for(var r=n.length,i=0;i<r;i++){var u=n[i];if(2===u.length){var o=null;if("string"==typeof u[0])o=t.getElementById(u[0]);else if(Array.isArray(u[0])){o=[];for(var a=0;a<u[0].length;a++)if("string"==typeof u[0][a]){var l=t.getElementById(u[0][a]);l&&o.push(l)}o=o.length?1===o.length?o[0]:new I(o):null}if(o){var s=L(t,o,u[1]);s&&(e=e.concat(s))}}}else for(var f in n)if(n.hasOwnProperty(f)){var c=t.getElementById(f);if(c){var h=L(t,c,n[f]);h&&(e=e.concat(h))}}return e.length?e:null}(t,n.elements);return e?function(t,n){var e=arguments.length>2&&void 0!==arguments[2]?arguments[2]:1/0,r=arguments.length>3&&void 0!==arguments[3]?arguments[3]:1,i=arguments.length>4&&void 0!==arguments[4]&&arguments[4],u=arguments.length>5&&void 0!==arguments[5]?arguments[5]:1,o=t.length,a=r>0?n:0;i&&e%2==0&&(a=n-a);var l=null;return function(s,f){var c=s%n,h=1+(s-c)/n;f*=r,i&&h%2==0&&(f=-f);var v=!1;if(h>e)c=a,v=!0,-1===u&&(c=r>0?0:n);else if(f<0&&(c=n-c),c===l)return!1;l=c;for(var d=0;d<o;d++)t[d](c);return v}}(e,n.duration,n.iterations||1/0,n.direction||1,!!n.alternate,n.fill||1):null}var D=function(){function t(e,r){var i=arguments.length>2&&void 0!==arguments[2]?arguments[2]:{};n(this,t),this._id=0,this._running=!1,this._rollingBack=!1,this._animations=e,this.duration=r.duration,this.alternate=r.alternate,this.fill=r.fill,this.iterations=r.iterations,this.direction=i.direction||1,this.speed=i.speed||1,this.fps=i.fps||100,this.offset=i.offset||0,this.rollbackStartOffset=0}return r(t,[{key:"_rollback",value:function(){var t=this,n=1/0,e=null;this.rollbackStartOffset=this.offset,this._rollingBack||(this._rollingBack=!0,this._running=!0);this._id=window.requestAnimationFrame((function r(i){if(t._rollingBack){null==e&&(e=i);var u=i-e,o=t.rollbackStartOffset-u,a=Math.round(o*t.speed);if(a>t.duration&&n!=1/0){var l=!!t.alternate&&a/t.duration%2>1,s=a%t.duration;a=(s+=l?t.duration:0)||t.duration}var f=t.fps?1e3/t.fps:0,c=Math.max(0,a);if(c<n-f){t.offset=c,n=c;for(var h=t._animations,v=h.length,d=0;d<v;d++)h[d](c,t.direction)}var y=!1;if(t.iterations>0&&-1===t.fill){var g=t.iterations*t.duration,p=g==a;a=p?0:a,t.offset=p?0:t.offset,y=a>g}a>0&&t.offset>=a&&!y?t._id=window.requestAnimationFrame(r):t.stop()}}))}},{key:"_start",value:function(){var t=this,n=arguments.length>0&&void 0!==arguments[0]?arguments[0]:0,e=-1/0,r=null,i={},u=function u(o){t._running=!0,null==r&&(r=o);var a=Math.round((o-r+n)*t.speed),l=t.fps?1e3/t.fps:0;if(a>e+l&&!t._rollingBack){t.offset=a,e=a;for(var s=t._animations,f=s.length,c=0,h=0;h<f;h++)i[h]?c++:(i[h]=s[h](a,t.direction),i[h]&&c++);if(c===f)return void t._stop()}t._id=window.requestAnimationFrame(u)};this._id=window.requestAnimationFrame(u)}},{key:"_stop",value:function(){this._id&&window.cancelAnimationFrame(this._id),this._running=!1,this._rollingBack=!1}},{key:"play",value:function(){!this._rollingBack&&this._running||(this._rollingBack=!1,this.rollbackStartOffset>this.duration&&(this.offset=this.rollbackStartOffset-(this.rollbackStartOffset-this.offset)%this.duration,this.rollbackStartOffset=0),this._start(this.offset))}},{key:"stop",value:function(){this._stop(),this.offset=0,this.rollbackStartOffset=0;var t=this.direction,n=this._animations;window.requestAnimationFrame((function(){for(var e=0;e<n.length;e++)n[e](0,t)}))}},{key:"reachedToEnd",value:function(){return this.iterations>0&&this.offset>=this.iterations*this.duration}},{key:"restart",value:function(){this._stop(),this.offset=0,this._start()}},{key:"pause",value:function(){this._stop()}},{key:"reverse",value:function(){this.direction=-this.direction}}],[{key:"build",value:function(n,e){return(n=function(t,n){if(B=n,!t||!t.root||!Array.isArray(t.animations))return null;for(var e=document.getElementsByTagName("svg"),r=!1,i=0;i<e.length;i++)if(e[i].id===t.root&&!e[i].svgatorAnimation){(r=e[i]).svgatorAnimation=!0;break}if(!r)return null;var u=t.animations.map((function(t){return z(r,t)})).filter((function(t){return!!t}));return u.length?{element:r,animations:u,animationSettings:t.animationSettings,options:t.options||void 0}:null}(n,e))?{el:n.element,options:n.options||{},player:new t(n.animations,n.animationSettings,n.options)}:null}}]),t}();!function(){for(var t=0,n=["ms","moz","webkit","o"],e=0;e<n.length&&!window.requestAnimationFrame;++e)window.requestAnimationFrame=window[n[e]+"RequestAnimationFrame"],window.cancelAnimationFrame=window[n[e]+"CancelAnimationFrame"]||window[n[e]+"CancelRequestAnimationFrame"];window.requestAnimationFrame||(window.requestAnimationFrame=function(n){var e=Date.now(),r=Math.max(0,16-(e-t)),i=window.setTimeout((function(){n(e+r)}),r);return t=e+r,i},window.cancelAnimationFrame=window.clearTimeout)}();var U=function(t,n){var e=!1,r=null;return function(i){e&&clearTimeout(e),e=setTimeout((function(){return function(){for(var i=0,u=window.innerHeight,o=0,a=window.innerWidth,l=t.parentNode;l instanceof Element;){var s=window.getComputedStyle(l);if("visible"!==s.overflowY||"visible"!==s.overflowX){var f=l.getBoundingClientRect();"visible"!==s.overflowY&&(i=Math.max(i,f.top),u=Math.min(u,f.bottom)),"visible"!==s.overflowX&&(o=Math.max(o,f.left),a=Math.min(a,f.right))}if(l===l.parentNode)break;l=l.parentNode}e=!1;var c=t.getBoundingClientRect(),h=Math.min(c.height,Math.max(0,i-c.top)),v=Math.min(c.height,Math.max(0,c.bottom-u)),d=Math.min(c.width,Math.max(0,o-c.left)),y=Math.min(c.width,Math.max(0,c.right-a)),g=(c.height-h-v)/c.height,p=(c.width-d-y)/c.width,m=Math.round(g*p*100);null!==r&&r===m||(r=m,n(m))}()}),100)}},W=function(){function t(e,r,i){n(this,t),r=Math.max(1,r||1),r=Math.min(r,100),this.el=e,this.onTresholdChange=i&&i.call?i:function(){},this.tresholdPercent=r||1,this.currentVisibility=null,this.visibilityCalculator=U(e,this.onVisibilityUpdate.bind(this)),this.bindScrollWatchers(),this.visibilityCalculator()}return r(t,[{key:"bindScrollWatchers",value:function(){for(var t=this.el.parentNode;t&&(t.addEventListener("scroll",this.visibilityCalculator),t!==t.parentNode&&t!==document);)t=t.parentNode}},{key:"onVisibilityUpdate",value:function(t){var n=this.currentVisibility>=this.tresholdPercent,e=t>=this.tresholdPercent;if(null===this.currentVisibility||n!==e)return this.currentVisibility=t,void this.onTresholdChange(e);this.currentVisibility=t}}]),t}(),Y=/\.0+$/g;function G(t){return Number.isInteger(t)?t+"":t.toFixed(6).replace(Y,"")}function H(t){var n=arguments.length>1&&void 0!==arguments[1]?arguments[1]:" ";return t&&t.length?t.map(G).join(n):""}function Q(t){return G(t.x)+","+G(t.y)}function X(t){return t?null==t.a||t.a>=1?"rgb("+t.r+","+t.g+","+t.b+")":"rgba("+t.r+","+t.g+","+t.b+","+t.a+")":"transparent"}var $={f:null,i:A,u:function(t,n){return function(e){var r=n(e);t.setAttribute("rx",G(r.x)),t.setAttribute("ry",G(r.y))}}},Z={f:null,i:function(t,n,e){return 0===t?n:1===t?e:{width:w(t,n.width,e.width),height:w(t,n.height,e.height)}},u:function(t,n){return function(e){var r=n(e);t.setAttribute("width",G(r.width)),t.setAttribute("height",G(r.height))}}},J=Math.sin,K=Math.cos,tt=Math.acos,nt=Math.asin,et=Math.tan,rt=Math.atan2,it=Math.PI/180,ut=180/Math.PI,ot=Math.sqrt,at=function(){function t(){var e=arguments.length>0&&void 0!==arguments[0]?arguments[0]:1,r=arguments.length>1&&void 0!==arguments[1]?arguments[1]:0,i=arguments.length>2&&void 0!==arguments[2]?arguments[2]:0,u=arguments.length>3&&void 0!==arguments[3]?arguments[3]:1,o=arguments.length>4&&void 0!==arguments[4]?arguments[4]:0,a=arguments.length>5&&void 0!==arguments[5]?arguments[5]:0;n(this,t),this.m=[e,r,i,u,o,a],this.i=null,this.w=null,this.s=null}return r(t,[{key:"determinant",get:function(){var t=this.m;return t[0]*t[3]-t[1]*t[2]}},{key:"isIdentity",get:function(){if(null===this.i){var t=this.m;this.i=1===t[0]&&0===t[1]&&0===t[2]&&1===t[3]&&0===t[4]&&0===t[5]}return this.i}},{key:"point",value:function(t,n){var e=this.m;return{x:e[0]*t+e[2]*n+e[4],y:e[1]*t+e[3]*n+e[5]}}},{key:"translateSelf",value:function(){var t=arguments.length>0&&void 0!==arguments[0]?arguments[0]:0,n=arguments.length>1&&void 0!==arguments[1]?arguments[1]:0;if(!t&&!n)return this;var e=this.m;return e[4]+=e[0]*t+e[2]*n,e[5]+=e[1]*t+e[3]*n,this.w=this.s=this.i=null,this}},{key:"rotateSelf",value:function(){var t=arguments.length>0&&void 0!==arguments[0]?arguments[0]:0;if(t%=360){var n=J(t*=it),e=K(t),r=this.m,i=r[0],u=r[1];r[0]=i*e+r[2]*n,r[1]=u*e+r[3]*n,r[2]=r[2]*e-i*n,r[3]=r[3]*e-u*n,this.w=this.s=this.i=null}return this}},{key:"scaleSelf",value:function(){var t=arguments.length>0&&void 0!==arguments[0]?arguments[0]:1,n=arguments.length>1&&void 0!==arguments[1]?arguments[1]:1;if(1!==t||1!==n){var e=this.m;e[0]*=t,e[1]*=t,e[2]*=n,e[3]*=n,this.w=this.s=this.i=null}return this}},{key:"skewSelf",value:function(t,n){if(n%=360,(t%=360)||n){var e=this.m,r=e[0],i=e[1],u=e[2],o=e[3];t&&(t=et(t*it),e[2]+=r*t,e[3]+=i*t),n&&(n=et(n*it),e[0]+=u*n,e[1]+=o*n),this.w=this.s=this.i=null}return this}},{key:"resetSelf",value:function(){var t=arguments.length>0&&void 0!==arguments[0]?arguments[0]:1,n=arguments.length>1&&void 0!==arguments[1]?arguments[1]:0,e=arguments.length>2&&void 0!==arguments[2]?arguments[2]:0,r=arguments.length>3&&void 0!==arguments[3]?arguments[3]:1,i=arguments.length>4&&void 0!==arguments[4]?arguments[4]:0,u=arguments.length>5&&void 0!==arguments[5]?arguments[5]:0,o=this.m;return o[0]=t,o[1]=n,o[2]=e,o[3]=r,o[4]=i,o[5]=u,this.w=this.s=this.i=null,this}},{key:"recomposeSelf",value:function(){var t=arguments.length>0&&void 0!==arguments[0]?arguments[0]:null,n=arguments.length>1&&void 0!==arguments[1]?arguments[1]:null,e=arguments.length>2&&void 0!==arguments[2]?arguments[2]:null,r=arguments.length>3&&void 0!==arguments[3]?arguments[3]:null,i=arguments.length>4&&void 0!==arguments[4]?arguments[4]:null;return this.isIdentity||this.resetSelf(),t&&(t.x||t.y)&&this.translateSelf(t.x,t.y),n&&this.rotateSelf(n),e&&(e.x&&this.skewSelf(e.x,0),e.y&&this.skewSelf(0,e.y)),!r||1===r.x&&1===r.y||this.scaleSelf(r.x,r.y),i&&(i.x||i.y)&&this.translateSelf(i.x,i.y),this}},{key:"decompose",value:function(){var t=arguments.length>0&&void 0!==arguments[0]?arguments[0]:0,n=arguments.length>1&&void 0!==arguments[1]?arguments[1]:0,e=this.m,r=e[0]*e[0]+e[1]*e[1],i=[[e[0],e[1]],[e[2],e[3]]],u=ot(r);if(0===u)return{origin:{x:e[4],y:e[5]},translate:{x:t,y:n},scale:{x:0,y:0},skew:{x:0,y:0},rotate:0};i[0][0]/=u,i[0][1]/=u;var o=e[0]*e[3]-e[1]*e[2]<0;o&&(u=-u);var a=i[0][0]*i[1][0]+i[0][1]*i[1][1];i[1][0]-=i[0][0]*a,i[1][1]-=i[0][1]*a;var l=ot(i[1][0]*i[1][0]+i[1][1]*i[1][1]);if(0===l)return{origin:{x:e[4],y:e[5]},translate:{x:t,y:n},scale:{x:u,y:0},skew:{x:0,y:0},rotate:0};i[1][0]/=l,i[1][1]/=l,a/=l;var s=0;return i[1][1]<0?(s=tt(i[1][1])*ut,i[0][1]<0&&(s=360-s)):s=nt(i[0][1])*ut,o&&(s=-s),a=rt(a,ot(i[0][0]*i[0][0]+i[0][1]*i[0][1]))*ut,o&&(a=-a),{origin:{x:e[4],y:e[5]},translate:{x:t,y:n},scale:{x:u,y:l},skew:{x:a,y:0},rotate:s}}},{key:"toString",value:function(){return null===this.s&&(this.s="matrix("+this.m.map(st).join(" ")+")"),this.s}}]),t}(),lt=/\.0+$/;function st(t){return Number.isInteger(t)?t:t.toFixed(14).replace(lt,"")}function ft(t,n,e){return t+(n-t)*e}function ct(t,n,e){var r=arguments.length>3&&void 0!==arguments[3]&&arguments[3],i={x:ft(t.x,n.x,e),y:ft(t.y,n.y,e)};return r&&(i.a=ht(t,n)),i}function ht(t,n){return Math.atan2(n.y-t.y,n.x-t.x)}Object.freeze({M:2,L:2,Z:0,H:1,V:1,C:6,Q:4,T:2,S:4,A:7});var vt={},dt=null;function yt(n){var e=function(){if(dt)return dt;if("object"!==("undefined"==typeof document?"undefined":t(document)))return{};var n=document.createElementNS("http://www.w3.org/2000/svg","svg");return n.style.position="absolute",n.style.opacity="0.01",n.style.zIndex="-9999",n.style.left="-9999px",n.style.width="1px",n.style.height="1px",dt={svg:n}}().svg;if(!e)return function(t){return null};var r=document.createElementNS(e.namespaceURI,"path");r.setAttributeNS(null,"d",n),r.setAttributeNS(null,"fill","none"),r.setAttributeNS(null,"stroke","none"),e.appendChild(r);var i=r.getTotalLength();return function(t){var n=r.getPointAtLength(i*t);return{x:n.x,y:n.y}}}function gt(t){return vt[t]?vt[t]:vt[t]=yt(t)}function pt(t,n,e,r){if(!t||!r)return!1;var i=["M",t.x,t.y];if(n&&e&&(i.push("C"),i.push(n.x),i.push(n.y),i.push(e.x),i.push(e.y)),n?!e:e){var u=n||e;i.push("Q"),i.push(u.x),i.push(u.y)}return n||e||i.push("L"),i.push(r.x),i.push(r.y),i.join(" ")}function mt(t,n,e,r){var i=arguments.length>4&&void 0!==arguments[4]?arguments[4]:1,u=pt(t,n,e,r),o=gt(u);try{return o(i)}catch(t){return null}}function bt(t,n,e,r){var i=1-r;return i*i*t+2*i*r*n+r*r*e}function wt(t,n,e,r){return 2*(1-r)*(n-t)+2*r*(e-n)}function xt(t,n,e,r){var i=arguments.length>4&&void 0!==arguments[4]&&arguments[4],u=mt(t,n,null,e,r);return u||(u={x:bt(t.x,n.x,e.x,r),y:bt(t.y,n.y,e.y,r)}),i&&(u.a=At(t,n,e,r)),u}function At(t,n,e,r){return Math.atan2(wt(t.y,n.y,e.y,r),wt(t.x,n.x,e.x,r))}function kt(t,n,e,r,i){var u=i*i;return i*u*(r-t+3*(n-e))+3*u*(t+e-2*n)+3*i*(n-t)+t}function _t(t,n,e,r,i){var u=1-i;return 3*(u*u*(n-t)+2*u*i*(e-n)+i*i*(r-e))}function St(t,n,e,r,i){var u=arguments.length>5&&void 0!==arguments[5]&&arguments[5],o=mt(t,n,e,r,i);return o||(o={x:kt(t.x,n.x,e.x,r.x,i),y:kt(t.y,n.y,e.y,r.y,i)}),u&&(o.a=Mt(t,n,e,r,i)),o}function Mt(t,n,e,r,i){return Math.atan2(_t(t.y,n.y,e.y,r.y,i),_t(t.x,n.x,e.x,r.x,i))}function Ot(t,n,e){var r=arguments.length>3&&void 0!==arguments[3]&&arguments[3];if(Bt(n)){if(It(e))return xt(n,e.start,e,t,r)}else if(Bt(e)){if(n.end)return xt(n,n.end,e,t,r)}else{if(n.end)return e.start?St(n,n.end,e.start,e,t,r):xt(n,n.end,e,t,r);if(e.start)return xt(n,e.start,e,t,r)}return ct(n,e,t,r)}function Et(t,n,e){var r=Ot(t,n,e,!0);return r.a=function(t){var n=arguments.length>1&&void 0!==arguments[1]&&arguments[1];return n?t+Math.PI:t}(r.a)/p,r}function Bt(t){return!t.type||"corner"===t.type}function It(t){return null!=t.start&&!Bt(t)}var jt=new at;var Pt={f:function(t){return t?t.join(" "):""},i:function(n,e,r){if(0===n)return e;if(1===n)return r;var i=e.length;if(i!==r.length)return m(n,e,r);for(var u,o=new Array(i),a=0;a<i;a++){if((u=t(e[a]))!==t(r[a]))return m(n,e,r);if("number"===u)o[a]=b(n,e[a],r[a]);else{if(e[a]!==r[a])return m(n,e,r);o[a]=e[a]}}return o}},Tt={f:null,i:M,u:function(t,n){return function(e){var r=n(e);t.setAttribute("x1",G(r[0])),t.setAttribute("y1",G(r[1])),t.setAttribute("x2",G(r[2])),t.setAttribute("y2",G(r[3]))}}},Ft={f:G,i:b},Rt={f:G,i:function(t,n,e){var r=b(t,n,e);return r<=0?0:r>=1?1:r}},Ct={f:function(t){var n=arguments.length>1&&void 0!==arguments[1]?arguments[1]:" ";return t&&t.length>0&&(t=t.map((function(t){return Math.floor(1e4*t)/1e4}))),H(t,n)},i:function(t,n,e){var r,i,u,o=n.length,a=e.length;if(o!==a)if(0===o)n=O(o=a,0);else if(0===a)a=o,e=O(o,0);else{var l=(u=(r=o)*(i=a)/function(t,n){for(var e;n;)e=n,n=t%n,t=e;return t||1}(r,i))<0?-u:u;n=E(n,Math.floor(l/o)),e=E(e,Math.floor(l/a)),o=a=l}for(var s=[],f=0;f<o;f++)s.push(g(w(t,n[f],e[f]),6));return s}};function Nt(t,n,e,r,i,u,o,a){return n=function(t,n,e){for(var r,i,u,o=t.length-1,a={},l=0;l<=o;l++)(r=t[l]).e&&(r.e=n(r.e)),r.v&&"g"===(i=r.v).t&&i.r&&(u=e.getElementById(i.r))&&(a[i.r]=u.querySelectorAll("stop"));return a}(t,r,a),function(r){var i,u=e(r,t,qt);return u?"c"===u.t?X(u.v):"g"===u.t?(n[u.r]&&function(t,n){for(var e=0,r=t.length;e<r;e++)t[e].setAttribute("stop-color",X(n[e]))}(n[u.r],u.v),(i=u.r)?"url(#"+i+")":"none"):"none":"none"}}function qt(t,n,e){if(0===t)return n;if(1===t)return e;if(n&&e){var r=n.t;if(r===e.t)switch(n.t){case"c":return{t:r,v:_(t,n.v,e.v)};case"g":if(n.r===e.r)return{t:r,v:S(t,n.v,e.v),r:n.r}}}return m(t,n,e)}var Vt={blur:A,brightness:w,contrast:w,"drop-shadow":function(t,n,e){return 0===t?n:1===t?e:{blur:A(t,n.blur,e.blur),offset:x(t,n.offset,e.offset),color:_(t,n.color,e.color)}},grayscale:w,"hue-rotate":b,invert:w,opacity:w,saturate:w,sepia:w};function Lt(t,n,e){if(0===t)return n;if(1===t)return e;var r=n.length;if(r!==e.length)return m(t,n,e);for(var i,u=[],o=0;o<r;o++){if(n[o].type!==e[o].type)return n;if(!(i=Vt[n[o].type]))return m(t,n,e);u.push({type:n.type,value:i(t,n[o].value,e[o].value)})}return u}var zt={blur:function(t){return t?function(n){t.setAttribute("stdDeviation",Q(n))}:null},brightness:function(t,n,e){return(t=Ut(e,n))?function(n){n=G(n),t.map((function(t){return t.setAttribute("slope",n)}))}:null},contrast:function(t,n,e){return(t=Ut(e,n))?function(n){var e=G((1-n)/2);n=G(n),t.map((function(t){t.setAttribute("slope",n),t.setAttribute("intercept",e)}))}:null},"drop-shadow":function(t,n,e){var r=e.getElementById(n+"-blur");if(!r)return null;var i=e.getElementById(n+"-offset");if(!i)return null;var u=e.getElementById(n+"-flood");return u?function(t){r.setAttribute("stdDeviation",Q(t.blur)),i.setAttribute("dx",G(t.offset.x)),i.setAttribute("dy",G(t.offset.y)),u.setAttribute("flood-color",X(t.color))}:null},grayscale:function(t){return t?function(n){t.setAttribute("values",H(function(t){return[.2126+.7874*(t=1-t),.7152-.7152*t,.0722-.0722*t,0,0,.2126-.2126*t,.7152+.2848*t,.0722-.0722*t,0,0,.2126-.2126*t,.7152-.7152*t,.0722+.9278*t,0,0,0,0,0,1,0]}(n)))}:null},"hue-rotate":function(t){return t?function(n){return t.setAttribute("values",G(n))}:null},invert:function(t,n,e){return(t=Ut(e,n))?function(n){n=G(n)+" "+G(1-n),t.map((function(t){return t.setAttribute("tableValues",n)}))}:null},opacity:function(t,n,e){return(t=e.getElementById(n+"-A"))?function(n){return t.setAttribute("tableValues","0 "+G(n))}:null},saturate:function(t){return t?function(n){return t.setAttribute("values",G(n))}:null},sepia:function(t){return t?function(n){return t.setAttribute("values",H(function(t){return[.393+.607*(t=1-t),.769-.769*t,.189-.189*t,0,0,.349-.349*t,.686+.314*t,.168-.168*t,0,0,.272-.272*t,.534-.534*t,.131+.869*t,0,0,0,0,0,1,0]}(n)))}:null}};var Dt=["R","G","B"];function Ut(t,n){var e=Dt.map((function(e){return t.getElementById(n+"-"+e)||null}));return-1!==e.indexOf(null)?null:e}var Wt={fill:Nt,"fill-opacity":Rt,stroke:Nt,"stroke-opacity":Rt,"stroke-width":Ft,"stroke-dashoffset":{f:G,i:b},"stroke-dasharray":Ct,opacity:Rt,transform:function(n,e,r,i){if(!(n=function(n,e){if(!n||"object"!==t(n))return null;var r=!1;for(var i in n)n.hasOwnProperty(i)&&(n[i]&&n[i].length?(n[i].forEach((function(t){t.e&&(t.e=e(t.e))})),r=!0):delete n[i]);return r?n:null}(n,i)))return null;var u=function(t,i,u){var o=arguments.length>3&&void 0!==arguments[3]?arguments[3]:null;return n[t]?r(i,n[t],u):e&&e[t]?e[t]:o};return e&&e.a&&n.o?function(t){var e=r(t,n.o,Et);return jt.recomposeSelf(e,u("r",t,b,0)+e.a,u("k",t,x),u("s",t,x),u("t",t,x)).toString()}:function(t){return jt.recomposeSelf(u("o",t,Ot,null),u("r",t,b,0),u("k",t,x),u("s",t,x),u("t",t,x)).toString()}},"#filter":function(t,n,e,r,i,u,o,a){if(!n.items||!t||!t.length)return null;var l=function(t,n){var e=(t=t.map((function(t){return t&&zt[t[0]]?(n.getElementById(t[1]),zt[t[0]](n.getElementById(t[1]),t[1],n)):null}))).length;return function(n){for(var r=0;r<e;r++)t[r]&&t[r](n[r].value)}}(n.items,a);return l?(t=function(t,n){return t.map((function(t){return t.e=n(t.e),t}))}(t,r),function(n){l(e(n,t,Lt))}):null},"#line":Tt,points:{f:H,i:M},d:Pt,r:Ft,"#size":Z,"#radius":$,_:function(t,n){if(Array.isArray(t))for(var e=0;e<t.length;e++)this[t[e]]=n;else this[t]=n}};return function(t){!function(t,n){if("function"!=typeof n&&null!==n)throw new TypeError("Super expression must either be null or a function");t.prototype=Object.create(n&&n.prototype,{constructor:{value:t,writable:!0,configurable:!0}}),n&&u(t,n)}(o,t);var e=a(o);function o(){return n(this,o),e.apply(this,arguments)}return r(o,null,[{key:"build",value:function(t){var n=l(i(o),"build",this).call(this,t,Wt),e=n.el,r=n.options,u=n.player;return function(t,n,e){if("click"===e.start){return void n.addEventListener("click",(function(){switch(e.click){case"freeze":return!t._running&&t.reachedToEnd()&&(t.offset=0),t._running?t.pause():t.play();case"restart":return t.offset>0?t.restart():t.play();case"reverse":var n=!t._rollingBack&&t._running,r=t.reachedToEnd();return n||r&&1===t.fill?(t.pause(),r&&(t.offset=t.duration-1),t._rollback()):r?t.restart():t.play();case"none":default:return!t._running&&t.offset?t.restart():t.play()}}))}if("hover"===e.start)return n.addEventListener("mouseenter",(function(){return t.reachedToEnd()?t.restart():t.play()})),void n.addEventListener("mouseleave",(function(){switch(e.hover){case"freeze":return t.pause();case"reset":return t.stop();case"reverse":return t.pause(),t._rollback();case"none":default:return}}));if("scroll"===e.start)return void new W(n,e.scroll||25,(function(n){n?t.reachedToEnd()?t.restart():t.play():t.pause()}));t.play()}(u,e,r),u}}]),o}(D)}));
__SVGATOR_PLAYER__.build({"root":"lima","animations":[{"duration":30000,"direction":1,"iterations":0,"fill":1,"alternate":false,"elements":{"lima-g1":{"transform":{"data":{"t":{"x":-1037,"y":-377.0999755859375}},"keys":{"o":[{"t":0,"v":{"x":1120.6999511699998,"y":377.0999755859375,"type":"corner"}},{"t":15000,"v":{"x":123.5499511715102,"y":377.0999755859374,"type":"corner"}},{"t":29800,"v":{"x":1037,"y":377.0999755859375,"type":"corner"}}]}}},"lima-g2":{"transform":{"data":{"t":{"x":-559.7999572753906,"y":-159.54999542236328}},"keys":{"o":[{"t":0,"v":{"x":81.35000610539066,"y":159.54999542236328,"type":"corner"}},{"t":15000,"v":{"x":559.7999572753906,"y":159.54999542236328,"type":"corner"}},{"t":29800,"v":{"x":1109.54998474539,"y":159.54999542236328,"type":"corner"}}]}}},"lima-g3":{"transform":{"data":{"t":{"x":-326.6999969482422,"y":-303.8499755859375}},"keys":{"o":[{"t":0,"v":{"x":156.29999999824227,"y":303.8499755859375,"type":"corner"}},{"t":15000,"v":{"x":1179.7999999982424,"y":303.8499755859375,"type":"corner"}},{"t":29800,"v":{"x":138.65000304824275,"y":303.8499755859375,"type":"corner"}}]}}},"lima-g4":{"transform":{"data":{"t":{"x":-1037,"y":-183.39999389648438}},"keys":{"o":[{"t":0,"v":{"x":1037,"y":183.39999389648438,"type":"corner"}},{"t":15000,"v":{"x":192.65002440500007,"y":183.39999389648438,"type":"corner"}},{"t":29800,"v":{"x":1037,"y":183.39999389648438,"type":"corner"}}]}}}}}],"options":{"start":"load","hover":"freeze","click":"freeze","scroll":25,"font":"embed","exportedIds":"names","title":"lima"},"animationSettings":{"duration":30000,"direction":1,"iterations":0,"fill":1,"alternate":false}})]]></script></svg>